<svg width="440.101" height="97.2" viewBox="0 0 440.101 97.2" xmlns="http://www.w3.org/2000/svg"><g id="svgGroup" stroke-linecap="round" fill-rule="evenodd" font-size="9pt" stroke="#000" stroke-width="0.25mm" fill="#000" style="stroke:#000;stroke-width:0.25mm;fill:#000"><path d="M 405.401 74 L 396.401 74 L 396.401 0 L 405.401 0 L 405.401 30.3 Q 408.201 26.2 412.501 23.5 A 17.572 17.572 0 0 1 419.625 20.991 A 22.595 22.595 0 0 1 422.601 20.8 A 23.225 23.225 0 0 1 427.666 21.318 Q 432.76 22.456 435.751 26.1 Q 439.876 31.126 440.089 39.209 A 33.764 33.764 0 0 1 440.101 40.1 L 440.101 74 L 431.101 74 L 431.101 41.1 Q 431.101 35.5 428.501 32.1 A 8.42 8.42 0 0 0 422.343 28.753 A 11.979 11.979 0 0 0 421.201 28.7 A 13.23 13.23 0 0 0 414.487 30.566 A 17.586 17.586 0 0 0 412.451 31.95 Q 408.301 35.2 405.401 39.6 L 405.401 74 Z M 181.901 92.8 L 185.201 85 A 20.562 20.562 0 0 0 189.018 87.373 A 24.737 24.737 0 0 0 190.801 88.15 Q 193.56 89.228 197.36 89.376 A 31.788 31.788 0 0 0 198.601 89.4 A 21.701 21.701 0 0 0 203.122 88.957 Q 206.022 88.339 208.223 86.859 A 12.576 12.576 0 0 0 209.751 85.65 A 11.352 11.352 0 0 0 212.658 81.157 Q 213.801 78.056 213.801 73.7 L 213.801 67.3 Q 211.801 69.7 208.051 71.85 Q 204.301 74 199.101 74 Q 193.201 74 187.901 70.95 A 22.236 22.236 0 0 1 180.608 64.112 A 27.437 27.437 0 0 1 179.301 62 A 25.181 25.181 0 0 1 176.588 54.376 A 35.033 35.033 0 0 1 176.001 47.8 A 32.06 32.06 0 0 1 176.918 39.992 A 26.682 26.682 0 0 1 179.251 33.9 A 25.706 25.706 0 0 1 185.314 26.278 A 24.448 24.448 0 0 1 188.001 24.3 Q 193.501 20.8 200.101 20.8 A 22.366 22.366 0 0 1 204.921 21.301 A 18.715 18.715 0 0 1 208.101 22.3 A 25.705 25.705 0 0 1 211.929 24.268 A 20.998 20.998 0 0 1 214.301 26 L 214.301 22 L 222.501 22 L 222.501 72.8 Q 222.501 81.4 219.501 86.8 Q 216.501 92.2 211.151 94.7 A 25.811 25.811 0 0 1 204.547 96.721 A 35.243 35.243 0 0 1 198.601 97.2 Q 194.001 97.2 189.651 96.1 A 27.232 27.232 0 0 1 184.35 94.183 A 23.518 23.518 0 0 1 181.901 92.8 Z M 48.901 6.4 L 46.001 14.4 Q 42.901 12.9 39.651 12 Q 36.858 11.227 33.215 11.118 A 40.705 40.705 0 0 0 32.001 11.1 A 21.173 21.173 0 0 0 24.096 12.555 A 19.981 19.981 0 0 0 20.551 14.4 A 21.167 21.167 0 0 0 14.185 20.981 A 26.978 26.978 0 0 0 12.601 23.9 Q 9.701 30.1 9.701 38.9 Q 9.701 47.3 12.551 53.6 A 25.677 25.677 0 0 0 16.137 59.428 A 21.423 21.423 0 0 0 20.451 63.4 A 19.703 19.703 0 0 0 31.596 66.897 A 23.894 23.894 0 0 0 32.001 66.9 A 33.715 33.715 0 0 0 35.972 66.678 Q 38.448 66.384 40.501 65.7 Q 44.101 64.5 47.501 62.6 L 50.401 70.5 A 37.561 37.561 0 0 1 45.906 72.544 A 47.894 47.894 0 0 1 41.951 73.85 A 33.592 33.592 0 0 1 36.985 74.841 Q 34.504 75.155 31.706 75.194 A 57.414 57.414 0 0 1 30.901 75.2 A 32.384 32.384 0 0 1 21.576 73.899 A 27.961 27.961 0 0 1 14.801 70.85 A 28.6 28.6 0 0 1 4.924 60.405 A 34.916 34.916 0 0 1 3.901 58.45 A 37.611 37.611 0 0 1 0.801 48.733 Q 0.026 44.467 0.001 39.614 A 62.816 62.816 0 0 1 0.001 39.3 Q 0.001 28.6 3.951 20.35 Q 7.901 12.1 15.151 7.45 A 29.371 29.371 0 0 1 27.831 3.039 A 37.292 37.292 0 0 1 32.101 2.8 A 45.639 45.639 0 0 1 37.159 3.068 A 35.2 35.2 0 0 1 41.201 3.75 A 38.224 38.224 0 0 1 48.675 6.294 A 35.605 35.605 0 0 1 48.901 6.4 Z M 346.001 96 L 337.001 96 L 337.001 35.3 A 11.015 11.015 0 0 0 336.874 33.564 Q 336.543 31.498 335.351 30.45 A 5.718 5.718 0 0 0 332.561 29.128 A 7.991 7.991 0 0 0 331.101 29 L 333.001 22 Q 338.862 22 341.923 24.964 A 10.15 10.15 0 0 1 344.501 29.3 Q 345.456 27.867 347.552 25.977 A 38.58 38.58 0 0 1 347.751 25.8 A 18.902 18.902 0 0 1 350.452 23.816 A 25.569 25.569 0 0 1 353.351 22.3 A 16.955 16.955 0 0 1 357.909 21.011 A 21.886 21.886 0 0 1 361.001 20.8 Q 367.001 20.8 372.251 23.95 A 22.329 22.329 0 0 1 379.429 30.917 A 27.464 27.464 0 0 1 380.701 33.05 Q 383.901 39 383.901 47.5 Q 383.901 55.8 380.701 62.05 A 27.846 27.846 0 0 1 376.767 67.882 A 23.029 23.029 0 0 1 372.351 71.75 Q 367.201 75.2 361.201 75.2 Q 356.601 75.2 352.601 73.35 A 30.352 30.352 0 0 1 349.184 71.511 Q 347.392 70.384 346.001 69.1 L 346.001 96 Z M 167.201 51.7 L 130.801 51.7 A 24.088 24.088 0 0 0 131.94 56.725 Q 133.276 60.538 135.901 63.1 Q 140.101 67.2 147.001 67.2 Q 151.501 67.2 155.101 66.25 Q 158.701 65.3 162.001 63.8 L 164.101 71.5 A 40.77 40.77 0 0 1 159.766 73.126 A 51.863 51.863 0 0 1 156.001 74.15 A 38.914 38.914 0 0 1 150.909 74.969 A 52.025 52.025 0 0 1 145.901 75.2 A 28.318 28.318 0 0 1 138.155 74.195 A 21.108 21.108 0 0 1 128.151 68.05 A 23.521 23.521 0 0 1 122.946 58.51 Q 121.601 53.845 121.601 48 A 35.359 35.359 0 0 1 122.433 40.178 A 28.84 28.84 0 0 1 124.551 34.05 A 24.642 24.642 0 0 1 129.567 26.968 A 22.887 22.887 0 0 1 132.801 24.35 A 21.048 21.048 0 0 1 143.06 20.878 A 26.205 26.205 0 0 1 145.101 20.8 Q 152.601 20.8 157.551 24.05 Q 162.501 27.3 165.001 32.8 A 28.185 28.185 0 0 1 167.427 42.664 A 33.434 33.434 0 0 1 167.501 44.9 A 75.204 75.204 0 0 1 167.21 51.597 A 69.426 69.426 0 0 1 167.201 51.7 Z M 89.401 56.1 L 89.401 31.7 L 80.401 31.7 L 80.401 23.9 L 89.601 23.9 L 91.501 7.5 L 98.401 7.5 L 98.401 23.9 L 112.801 23.9 L 112.801 31.7 L 98.401 31.7 L 98.401 56.8 A 21.559 21.559 0 0 0 98.568 59.596 Q 99.042 63.202 100.851 64.9 Q 103.301 67.2 106.701 67.2 Q 109.201 67.2 111.451 66.4 Q 113.701 65.6 115.601 64.5 L 118.101 71.7 A 18.546 18.546 0 0 1 116.482 72.556 Q 115.681 72.935 114.735 73.308 A 43.365 43.365 0 0 1 112.701 74.05 Q 109.301 75.2 105.601 75.2 Q 98.101 75.2 93.751 70.25 A 16.116 16.116 0 0 1 90.522 64.348 Q 89.76 61.917 89.516 58.98 A 34.777 34.777 0 0 1 89.401 56.1 Z M 310.501 26.2 L 310.501 22 L 318.701 22 L 318.701 61.4 A 12.15 12.15 0 0 0 318.802 63.036 Q 319.134 65.47 320.551 66.35 Q 322.401 67.5 324.601 67.5 L 322.701 74.5 A 17.722 17.722 0 0 1 318.436 74.028 Q 312.799 72.628 311.204 67.08 A 13.59 13.59 0 0 1 311.101 66.7 A 21.307 21.307 0 0 1 307.991 70.126 A 28.498 28.498 0 0 1 304.851 72.55 Q 300.901 75.2 294.801 75.2 Q 288.301 75.2 283.001 71.9 A 22.947 22.947 0 0 1 275.588 64.373 A 27.923 27.923 0 0 1 274.551 62.55 A 27.228 27.228 0 0 1 271.921 54.608 A 36.644 36.644 0 0 1 271.401 48.3 A 33.142 33.142 0 0 1 272.397 40.031 A 27.968 27.968 0 0 1 274.551 34.3 Q 277.701 28.1 283.251 24.45 A 22.297 22.297 0 0 1 294.445 20.844 A 27.388 27.388 0 0 1 296.001 20.8 A 22.584 22.584 0 0 1 300.794 21.29 A 18.703 18.703 0 0 1 304.151 22.35 A 26.002 26.002 0 0 1 308.437 24.644 A 22.103 22.103 0 0 1 310.501 26.2 Z M 247.001 74 L 238.001 74 L 238.001 22 L 246.701 22 L 246.701 33.3 Q 248.001 30 250.201 27.15 Q 252.401 24.3 255.701 22.55 A 14.817 14.817 0 0 1 260.38 21.026 A 19.459 19.459 0 0 1 263.401 20.8 Q 264.901 20.8 266.401 20.95 A 18.972 18.972 0 0 1 267.455 21.084 Q 267.955 21.162 268.383 21.262 A 8.817 8.817 0 0 1 268.901 21.4 L 266.201 30.7 A 9.763 9.763 0 0 0 264.055 30.088 Q 262.96 29.9 261.701 29.9 A 12.958 12.958 0 0 0 255.071 31.746 A 15.609 15.609 0 0 0 254.651 32 Q 251.323 34.086 249.179 38.442 A 22.927 22.927 0 0 0 249.151 38.5 Q 247.388 42.107 247.07 47.328 A 39.09 39.09 0 0 0 247.001 49.7 L 247.001 74 Z M 71.401 74 L 62.401 74 L 62.401 22 L 71.401 22 L 71.401 74 Z M 309.701 60.7 L 309.701 32.8 Q 307.001 30.9 303.751 29.75 Q 300.501 28.6 296.901 28.6 A 15.924 15.924 0 0 0 291.93 29.354 A 14.024 14.024 0 0 0 288.451 31.05 A 16.301 16.301 0 0 0 283.431 36.474 A 19.962 19.962 0 0 0 282.701 37.85 A 20.663 20.663 0 0 0 280.947 43.527 A 27.678 27.678 0 0 0 280.601 48 Q 280.601 53.6 282.701 57.95 A 17.602 17.602 0 0 0 285.806 62.496 A 15.697 15.697 0 0 0 288.501 64.75 Q 292.201 67.2 296.801 67.2 Q 300.601 67.2 304.001 65.35 Q 307.401 63.5 309.701 60.7 Z M 346.001 35.4 L 346.001 61 Q 348.601 63.7 352.001 65.45 Q 355.401 67.2 359.401 67.2 Q 366.094 67.2 370.317 62.016 A 17.38 17.38 0 0 0 370.451 61.85 A 18.792 18.792 0 0 0 373.944 54.544 Q 374.606 51.855 374.689 48.708 A 34.555 34.555 0 0 0 374.701 47.8 Q 374.701 41.8 372.551 37.5 Q 370.401 33.2 366.851 30.9 Q 363.301 28.6 359.001 28.6 A 14.741 14.741 0 0 0 353.374 29.663 A 14.054 14.054 0 0 0 351.251 30.75 Q 347.801 32.9 346.001 35.4 Z M 213.501 60 L 213.501 32.8 Q 211.335 31.225 208.297 29.941 A 36.018 36.018 0 0 0 208.201 29.9 A 16.249 16.249 0 0 0 204.397 28.849 A 22.135 22.135 0 0 0 201.001 28.6 Q 196.901 28.6 193.301 30.8 Q 189.701 33 187.451 37.15 Q 185.201 41.3 185.201 47.3 A 24.32 24.32 0 0 0 185.679 52.236 A 18.311 18.311 0 0 0 187.451 57.2 A 18.576 18.576 0 0 0 190.362 61.275 A 15.802 15.802 0 0 0 193.301 63.7 Q 196.901 66 201.101 66 A 15.276 15.276 0 0 0 205.679 65.332 A 13.606 13.606 0 0 0 208.301 64.2 A 20.855 20.855 0 0 0 211.282 62.184 A 16.309 16.309 0 0 0 213.501 60 Z M 130.701 44.4 L 159.201 44.4 A 24.355 24.355 0 0 0 158.796 39.815 Q 158.301 37.231 157.196 35.207 A 12.422 12.422 0 0 0 155.401 32.7 A 12.488 12.488 0 0 0 148.44 28.924 A 18.395 18.395 0 0 0 144.901 28.6 A 13.58 13.58 0 0 0 139.789 29.535 A 12.524 12.524 0 0 0 135.301 32.65 Q 131.501 36.7 130.701 44.4 Z M 62.538 11.288 A 5.973 5.973 0 0 0 66.901 13.1 A 8.175 8.175 0 0 0 68.397 12.969 A 5.647 5.647 0 0 0 71.501 11.35 Q 73.201 9.6 73.201 6.8 A 7.26 7.26 0 0 0 73.2 6.719 A 6.06 6.06 0 0 0 71.351 2.35 A 7.395 7.395 0 0 0 71.293 2.293 A 6.059 6.059 0 0 0 66.901 0.5 A 8.264 8.264 0 0 0 65.245 0.658 A 5.661 5.661 0 0 0 62.301 2.2 A 5.588 5.588 0 0 0 60.83 4.832 A 7.987 7.987 0 0 0 60.601 6.8 A 5.992 5.992 0 0 0 61.093 9.219 A 6.643 6.643 0 0 0 62.451 11.2 A 7.466 7.466 0 0 0 62.538 11.288 Z" vector-effect="non-scaling-stroke"/></g></svg>